<svg xmlns="http://www.w3.org/2000/svg" xmlns:xlink="http://www.w3.org/1999/xlink" viewBox="0 0 500 600">
  <defs>
    <style>
      .cls-1 {
        fill: #878eaa;
      }

      .cls-2 {
        fill: #5b6582;
      }

      .cls-3 {
        fill: #0f4565;
      }

      .cls-4, .cls-6 {
        fill: #000d27;
      }

      .cls-5 {
        fill: url(#linear-gradient);
      }

      .cls-6 {
        opacity: 0;
      }
    </style>
    <linearGradient id="linear-gradient" x1="310.86" y1="441.18" x2="384.9" y2="427.61" gradientTransform="translate(-69.28 47.1) rotate(-9.6)" gradientUnits="userSpaceOnUse">
      <stop offset="0.01" stop-color="#ffe000"/>
      <stop offset="1" stop-color="#ffe53f" stop-opacity="0"/>
    </linearGradient>
  </defs>
  <title>cave</title>
  <g id="Layer_1" data-name="Layer 1">
    <rect class="cls-1" x="12" y="6" width="481" height="589"/>
    <path class="cls-2" d="M0,0V597l500,3V0ZM450.47,418.57c-.42,13-1.56,27.91-8.89,35.11-3.06,3-6.75,4.12-10.28,5.6-9.86,4.14-18.95,11.43-27.95,18.67l.21-4.3c.07-1.42-1.25-1.92-1.65-.62-2.66,8.61-2.58,19.81-7.85,25.12-2.57,2.59-5.87,3.05-8.62,5.21-4.49,3.51-7.18,11.23-12,13.58-2.41,1.17-5,.82-7.52,1.37-7.86,1.75-13.86,12.12-21.71,14l-.19-3.7c-.09-1.73-1.63-2.32-2.26-.87a21.71,21.71,0,0,1-2.2,4q-.62-3.76-1-7.61c-.22-2.4-2.44-2.84-3.08-.61h0q-.19-14.07-.6-28.15c-.05-1.78-1.77-2-2.05-.27a246,246,0,0,0-3.11,38.67c0,4.58-.36,10.29-3.35,11.85-1.67.87-3.53,0-4.71-2a13,13,0,0,1-1.68-5.75c-.14-1.89-1.56-2.86-2.64-1.81-4.25,4.15-10.77,3.74-16.12,2-6.91-2.25-14.95-5.11-20.4,1.52-5.63,6.84-14.6,2-21.48,5.56-2.88,1.51-5.36,4.51-8.34,5.59-2.36.85-4.84.42-7.27.55-4.82.26-9.53,2.75-14.36,2.66-8.35-.15-16.49-8-24.59-5-1.55.56-3.52,1.34-4.28-1.25a6.48,6.48,0,0,1-.2-1.1l-.84-7.76c-.11-1-1.14-1-1.24,0l-.82,9.08-9.67-7.71c-5.32-4.24-11.45-10.71-10.62-19.54-1.78-1.31-3.65,1.86-4,4.75-.43,3.33-.14,7.25-2.33,9.21a3,3,0,0,1-3.42.48c-1.45-.67-2.4-4.71-3.23-8.5-.41-1.91-2.22-2-2.73-.14-1,3.67-2.51,7.32-3.82,7a5.17,5.17,0,0,1-2.22-1.49c-6-6-7.29-18-8.08-28.57-1.27-16.88-2.53-31-3.8-46.81-.05-.58-.62-.52-.62.06a335.78,335.78,0,0,1-3.76,52.46c-.3,2.12-1.51,3.76-3,3.83-1.67.08-2.23-1.74-2.67-3.44a98.5,98.5,0,0,1-2.3-12.18,12.9,12.9,0,0,1-1.2,4c-1.23,2.53-3,4.46-4.08,7.13a4.87,4.87,0,0,1-.73,1.29c-2.18,2.54-4.21-2.35-4.45-6-.63-9.54.1-19.67-1.59-28.72-.59-3.16-3.73-2.45-3.65.82,0,.39,0,.77,0,1.13.47,10.27.15,21.18-3.58,29.88-1.72,4-5.42,7.58-8,4.64-2-2.35-1.64-7-2.73-10.46-.94-2.93-2.89-4.81-4.36-7.23C95,490.74,94,486.85,92.94,483q-5.28-19.59-10.58-39.2c-3.17-11.77,5.09-25.08,7.69-37.15,2.23-10.4,1.91-21.8,4.63-31.95,1-3.85,2.49-7.46,3.24-11.44,1.17-6.15.59-12.68.92-19,.3-5.87,1.72-12.24,5-15.38.13-2.25,2-3.84,3.58-3.14s2.62,3.3,2.83,5.8a32.78,32.78,0,0,1-.6,7.46,159.08,159.08,0,0,0-1.72,21.66c0,1.95,1.87,2.33,2.2.44q1.71-9.78,3-19.67c1.61-12,3.13-25,8.07-34.44,1.08-2.05,3.31-1.06,3.42,1.53l.67,15.14c0,.58.59.59.63,0a216.07,216.07,0,0,1,2.63-23.14,26.17,26.17,0,0,1,1.22-4.76c.94-2.49,3.51-1.57,3.6,1.28l.67,20.85c.05,1.51,1.52,1.68,1.72.19.92-6.74,2-13.45,3.31-20,.34-1.62,2-1.2,1.92.5q-.76,22.64-.44,45.32c0,1.79,1.78,2,2,.26,1.66-12.25,1.9-24.93,2-37.46,0-5.45.22-11.42,2-16,.54-1.39,2-1,2.12.64.93,10.59.24,21.37-.79,32.05-.1,1,.92,1.35,1.12.34,2-10.58,1.91-22,2.11-33.14.26-13.88,1.27-28.64,7.07-39.58l1.45,3.92a14.23,14.23,0,0,1,2.93-8.61c-.38,10.36-.31,20.76.21,31.1.07,1.32,1.38,1.34,1.47,0,.84-12.12-.16-24.86,3.78-35.45q.81,14.9.72,29.85c0,1.57,1.48,1.91,1.8.41,2.42-11.33.41-25.51,5.86-34.4l2.19,73.59c.05,1.61,1.64,1.78,1.84.19a582.81,582.81,0,0,0,4.37-61.26c.11-6.32.14-12.75,1.32-18.83L187.27,242c.17,1.54,1.65,1.65,1.92.13L193,220.5l.85,20.73c0,.81.82.9.94.11l2.8-18.75a36.69,36.69,0,0,1,1.15,12.14l4.22-23.14.64,28c0,1,1,1.15,1.18.13l3.33-27,0,22.8a27.51,27.51,0,0,1,1.42-8.13l-.32,17.4c0,1,.93,1.15,1.08.2,1.33-9,2.72-18.11,4-27l-.67,35.35c0,1.87,1.8,2.19,2.06.36,1.73-12.42,1.61-25.51,2.22-38.27a21.39,21.39,0,0,1,.66-4.38c.69-2.6,3.3-1.86,3.28.93a77.62,77.62,0,0,0,1.1,13.58c.27,1.6,1.8,1.62,2.09,0l1.88-10.54c.39-2.19,2.51-2.25,2.93-.07,1.17,6.18.69,13.28,1.28,19.93.12,1.36,1.46,1.33,1.56,0,.53-7.08,1.4-14.1,2.59-21,.42-2.45,2.73-2.63,3.3-.25a38.56,38.56,0,0,1,.65,8.86,187.32,187.32,0,0,0,1.41,25.33c.24,2,2.19,2,2.42,0,1.27-11,2.09-22,2.45-33.14a126.88,126.88,0,0,1,1.27-17.11c.48-2.76,3.22-2.07,3.06.76,0,.55-.07,1.11-.11,1.66-.09,1.19,1,1.58,1.31.47,1.35-5.44,1.32-12.15,2.92-16.92.75-2.25,3-1.55,3.1,1l.26,9.54,3.42-13.1c.37-1.44,1.72-1.56,2.22-.2,1,2.69.86,6.5.7,9.75a112.11,112.11,0,0,0,1.12,22.23c.21,1.37,1.54,1.31,1.71-.07,1.8-14.46-.45-30.5,4.8-43l.29,9.17c0,.92.92,1,1,.12a132.72,132.72,0,0,1,3.65-17.26,36.23,36.23,0,0,1,2,13.9q1.26-8.5,3-16.84c.17-.8.65-1.42,1.23-1.44,1,0,1.29,1.83,1.29,3.24q0,9.12,0,18.23c0,1.42,1.38,1.67,1.61.29,1.73-10.4,3.2-20.7,4.27-31.48a2.49,2.49,0,0,1,1.52-2.33c1.39-.28,1.91,2.14,2.05,4q.39,4.93.77,9.87c3.56-7.17,1.06-17.81,3.81-25.7a4.8,4.8,0,0,1,.95-1.78c.9-.92,2.2-.47,3,.59a12.59,12.59,0,0,1,1.74,4.06,1.14,1.14,0,0,1,2.06-.61,6.52,6.52,0,0,1,.9,3.36c1.25,16.26,1.06,32.74,2.48,48.93.05.53.57.48.57-.05A205.85,205.85,0,0,1,312,154.14q.48,5.24.62,10.52c0,1.59,1.57,1.79,1.81.24,2.22-14.44-1.36-31,1.74-45.47q.42,13.77.39,27.56c0,1,1,1.21,1.16.19l4.09-27.77q-.56,10.83-1.1,21.66A91.38,91.38,0,0,1,327,112.73c.19,8.76.53,17.66.82,26.52.07,2.28,2.32,2.37,2.5.1.81-10.73.12-22,2.52-32.26,2.23,1.16,2.28,5.69,2.11,9.17a89.54,89.54,0,0,0,2.31,25.08,68.92,68.92,0,0,1,2.39-19l2.17,17.92,2.95-15.68c2,3.77,1.48,9,1.27,13.79a28.27,28.27,0,0,0,.65,8.11c.59,2.27,2.84,1.91,3.09-.49l2.5-23.86a124.77,124.77,0,0,1,1.92,13.47,60.63,60.63,0,0,1,4.89-14.46l1.06,23.22a57.68,57.68,0,0,0,5.22-21.09c2,6.31,3.79,12.78,5.33,19.36.55,2.31,2.77,2.35,3.32.05a97.78,97.78,0,0,1,3.11-10.39c1.93,1,2.38,4.68,2.53,7.7l.73,15.12c.05,1.21,1.23,1.29,1.36.09q.7-6.37,1.83-12.62a36.5,36.5,0,0,1,3.3,14.42A28.94,28.94,0,0,0,389,143.48l1.83,23.14c4.75-6.3,1.59-18.11,3.7-27a143.79,143.79,0,0,1,3.7,31,15.2,15.2,0,0,0,2.13-9.29c2.83,1.92,3.29,7.47,3.34,12.06q.09,8.72.2,17.42c0,2,1.94,2.39,2.32.47,1.69-8.46.26-19,3.15-27a75.4,75.4,0,0,1,2.65,18c0,1.33,1.31,1.56,1.55.27q.66-3.75,1.22-7.53c.13,17.2.26,34.56,2.4,51.44.39,3.06,3.32,3.35,4,.37,2.38-11.14-1-26.29,3.83-36.36,6.8,12.88,3.9,31.25,5.88,47.44.22,1.81,2,1.86,2.25.07A241.54,241.54,0,0,0,435.79,196c2.37,1.21,3,5.59,3.35,9.26q3,36,6,72.08c1.26,15.23,1.86,29.39,3.64,44.51C452.54,353.68,451.51,386.28,450.47,418.57Z"/>
    <path class="cls-3" d="M0,0V597l500,3V0ZM457.41,431.71c-.33,6.69-1.64,15-6.06,16.33-2.46.74-15.15-.25-18.83,5.07-1,1.45-1.55,3.46-2.52,4.94-4.49,6.82-15.19,0-17.17,9.06-.65,3,.27,6.26.19,9.43-.14,5-2.8,9.1-5.56,12-7.76,8.23-17.81,11.53-27.18,8.93-1.44-.41-2.92-.94-4.37-.57-4.79,1.23-6,10.41-8.7,16.39-2,4.41-5.34,7.44-8.9,8.1-4,.74-8.05-1.43-12.12-1.62a9.24,9.24,0,0,0-9.41,8.81c-.15,1.57,0,3.21-.28,4.73-.9,4.5-4.93,5.13-8.09,5.1a74.34,74.34,0,0,0-36.14,9.21c-6.06,3.26-11.95,7.37-18.27,9.26-9.09,2.73-18.48.7-27.64-1.32-1.9-.42-3.92-.93-5.3-2.9s-1.81-5.12-2.14-8q-.91-8-1.82-16c-.24-2.13-2.27-2.25-2.63-.16l-2.26,13.2-2.17-14c-.24-1.56-1.75-1.48-1.92.1-.82,7.7,1.53,17.12-2.26,22.48-1.89,2.66-4.68,3.21-7.27,3.49a79.35,79.35,0,0,1-28.34-2c-7.32-1.88-14.72-4.8-22.08-3.28-10.26-4.37-21-10.43-28.72-21.41-2.19-3.14-4.16-6.64-6.56-9.42-4.87-5.65-11.13-7.93-16.38-12.78a40.5,40.5,0,0,1-10.15-16.14c-1.11-3.1-2-6.43-3.42-9.2-1.06-2-2.41-3.69-3.41-5.78-2.57-5.38-2.37-12.38-2.94-19-.13-1.51-1.62-1.51-1.75,0q-.57,6.9-1.54,13.72c-1.14-.09-1.68-2.09-1.94-3.74Q89.23,451.31,87.09,438c-.21-1.31-1.5-1.14-1.55.2q-.44,10.89-1.32,21.72c-2.18-2.19-3.07-6.22-3.78-10-5.71-30.08-9-61.08-11.29-92.14-1.75-23.54-11.71-45.71-12.39-69.37-1.42-49.23-12.75-96.29-7.91-145a5.72,5.72,0,0,1,1.7-3.41c.7-.73,1.66,0,1.66,1.28,0,21,2.08,61.36,5.31,83.85.17,1.22,1.38,1.1,1.44-.15.8-16,.91-46.92,1-57.38.07-7.8,0-15.83,1.16-23.34.35-2.23,2.56-1.84,2.56.45v.07q.07,24.08.13,48.16c0,1.12,1.08,1.28,1.24.19a272.52,272.52,0,0,0,2.78-41.47c0-5.79-.24-11.89.7-17.41.33-2,2.28-1.75,2.4.29,1.42,24.66-1,49.81,1.14,74.29.07.83.89.77.92-.06l.4-14.15c.41-14.4.91-29.32,4.84-42.39.45-1.51,1.87-1.64,2.46-.23,6.22,15,7.87,33.44,8.61,51.17q.54,12.92.57,25.86c0,1.53,1.49,1.76,1.7.26a206.13,206.13,0,0,0,1.87-24.9c.13-9.8-.34-20.17,2.07-29.1.42-1.55,1.92-1.55,2.33,0a111.48,111.48,0,0,1,3.58,26.36c.1,5.65-.22,11.38.1,17,.09,1.51,1.56,1.61,1.74.13a140.32,140.32,0,0,0,1-14.24c0-1.6,1.56-1.9,1.88-.37,1.65,7.79,2,16.18,2.14,24.49,0,1.21,1.15,1.49,1.43.35a99.37,99.37,0,0,0,2.17-12.34c.21-1.8,2-1.64,2,.19v.06l.51,32.69c0,1.66,1.56,2.05,2,.5,2.9-11.16,1.65-24.46,3.11-36.65.14-1.14,1.24-1.11,1.37,0,1.85,16.15.08,33,1,49.37.06,1.14,1.17,1.29,1.36.18,1.56-8.71.38-18.34.86-27.55.08-1.37,1.43-1.42,1.55-.05.77,8.61-.07,17.58.11,26.37.05,2,2,2.19,2.23.17,1.1-11.38-1-23.88,1.29-35.05l.1,16.69c0,1.35,1.27,1.64,1.56.35,1.26-5.56.33-12.65,1.69-18.25.22-.91,1.12-.69,1.13.27l.33,37.16c0,1.81,1.74,2.12,2,.38,1.79-10.1.32-21.68,1.51-32.32.1-.91,1-.89,1.06,0l1.5,19.18c.09,1.26,1.29,1.35,1.48.12,1.25-7.8.68-13.53,1.69-22.88.07-.59.65-.54.66.07.17,8.37.68,16.73,1.54,25,.12,1.18,1.26,1.24,1.43.07,3.44-23.89.15-49.19,1.94-73.62.09-1.2,1.23-1.32,1.42-.15,1.71,10.29,2.61,20.87,3.4,31.44.08,1,1.07,1.16,1.26.15a151.29,151.29,0,0,0,2.35-18.9,72.66,72.66,0,0,0,.37,13.6c.18,1.51,1.59,1.75,2,.33A76.49,76.49,0,0,0,162,195.52c2.47-17.27,5.95-34.17,8.58-51.4.27-1.74.55-3.56,1.5-4.79a1.71,1.71,0,0,1,1.93-.79c1.36.51,1.69,2.88,1.84,4.86l.9,12.47a16.87,16.87,0,0,0,1.8-7.73c.92-.85,1.88,1,2.17,2.54a270.87,270.87,0,0,1,4.73,49.88c0,.63.6.77.73.17A54.33,54.33,0,0,0,187.77,188c-.06-4-.73-8.47.95-11.58,1.07.37,1.29,2.46,1.28,4.1q0,9.13-.08,18.27c0,2.69,0,5.43.22,8.1.12,1.2,1.28,1.26,1.46.07a169.81,169.81,0,0,0,1.9-29.27c0-1,1-1.11,1.06-.11.5,6.28-.65,13.31.52,19.25.2,1,1.17.89,1.25-.15q.72-9.79,1.84-19.53a6.33,6.33,0,0,1,1-3.31,1,1,0,0,1,1.48-.24,3.34,3.34,0,0,1,.57,2.39,146.26,146.26,0,0,0,1.58,21.49c.15,1,1.09,1.07,1.31.11a5.64,5.64,0,0,0,.15-1c.56-6.91-.64-14.39.57-20.88.2-1,1.25-.9,1.31.2.59,9.58.78,19.22.58,28.83a64.22,64.22,0,0,0,.17,8.45c.16,1.47,1.59,1.49,1.79,0a58.37,58.37,0,0,0,.33-7.73l-.08-26.15v-.06c0-1.48,1.46-1.61,1.57-.13,1.18,15.26,1.63,30.65,1.32,46,0,1,.91,1.24,1.14.31a35.51,35.51,0,0,0,.66-7.92q.15-21.87.29-43.74a20,20,0,0,1,.68,2.07c.16.59.73.47.76-.16a90.47,90.47,0,0,1,1.2-10.46c.7,5.47.29,12.41.59,17.64,0,.72.75.71.78,0,.31-7.25.85-14.51,2.62-21.26,2.46,3.65,3,9.24,3.07,14.41.1,4.1.08,8.38.93,12.21.15.68.82.51.83-.2A134.59,134.59,0,0,1,228,161.62c1.17.1,1.58,2.32,1.68,4l1.55,27c0,.7.72.72.78,0,.88-10.59,1.41-21.26,1.4-31.93a29,29,0,0,1,1.25-8.59,8.25,8.25,0,0,1,1.19-2.54,1.58,1.58,0,0,1,1.84-.7c.89.37,1.09,1.53,1.26,2.6,2.18,14,3.69,28.16,4.52,42.44.07,1.26,1.26,1.49,1.54.29,1.77-7.53,2-15.8,2.28-23.84,1.27,8.61-1.24,18.18.18,26.41.2,1.12,1.28,1.07,1.42-.08,1.16-9.82,1.84-19.78,2-29.75.07-3.71.15-7.7,1.08-11,.41-1.49,1.88-1.3,2.1.27q.39,2.69.62,5.41c.07.85.86,1,1,.14,1.49-6.78.71-14.8,2.12-21.45.35-1.7,2-1.43,2.15.33q1.23,17.53,2.26,35.08c.07,1.32,1.31,1.54,1.59.28,1.28-5.71-.28-13.1.93-19.25a252.8,252.8,0,0,1,2.78,38.4c0,1.08,1,1.27,1.21.21a193.72,193.72,0,0,0,2.3-34.11c0-.51.48-.6.55-.11l2.59,17c.21,1.36,1.52,1.38,1.74,0,1.48-9.31.29-19.57,1.21-29.08.21-2.16,2.28-2.28,2.61-.16l.37,2.32c.17,1.06,1.17,1.06,1.35,0l1.75-10.68.85,4.42c.14.74.86.67.93-.09a26.93,26.93,0,0,0,.09-4.4q1.61,7.65,3.35,15.25c.33,1.45,1.75,1.3,1.92-.21.73-6.58-.4-14.1,2.51-19.09l1.36,7.87c.14.79.91.68.95-.13a46.21,46.21,0,0,1,.55-5.71c.27-1.65,1.84-1.71,2.17-.09l.44,2.11c.21,1,1.2,1,1.34-.1a36,36,0,0,1,2.58-9.7c.59,3,1.25,12.54,1.83,19.82.12,1.46,1.53,1.51,1.7.06.75-6.58,1.8-15.82,2.52-22.1.19-1.7,1.8-1.84,2.13-.18.14.72.29,1.44.42,2.13.25,1.23,1.44,1.19,1.64-.06q1.35-8.13,3-16.15a15,15,0,0,1,1.61,5.31c.18,1.45,1.52,1.7,1.91.34v0l5.23-18.57c.44-1.54,1.94-1.31,2.17.34.17,1.23.37,2.45.59,3.67.28,1.59,1.79,1.69,2.16.13l1-4.17c.18-.75.88-.78,1.09,0l1.59,5.46c.29,1,1.25.93,1.48-.09l1.06-4.7a4.66,4.66,0,0,1,1.76-2.26c1.48-1.16,3.31.14,3.67,2.58l.24,2.38c.07.79.85.8.93,0l.37-3.45c.23-.8,1-.75,1.2.08a68.69,68.69,0,0,1,.86,7c0,.57.6.59.67,0l.67-5.44c1.87,5.09,1.82,11.21,2.84,16.79.12.61.72.49.74-.14a62.63,62.63,0,0,1,1-9.82c1.2,1.22.93,3.89.74,6a30.36,30.36,0,0,0,0,5.64c.1,1,1.1,1.18,1.32.17a32.05,32.05,0,0,0,.65-5.48,24.83,24.83,0,0,1,.52-5.82c.21-.69.9-.5.92.25a139.32,139.32,0,0,0,1.94,19.12c.21,1.24,1.4,1.16,1.55-.1.57-5,.07-10.37,1.3-15.11.16-.61.37-1.25.93-1.31a1,1,0,0,1,.84.46,5.54,5.54,0,0,1,.68,2.63l1.31,13.73c.08.78.84.81.93,0,.57-4.64,1.19-9.25,2-13.8a43.71,43.71,0,0,1,1.54,5.25c.12.5.6.44.66-.08a87.57,87.57,0,0,1,2.18-11.24l1.19,11c.06.64.68.65.76,0l1.23-9.4c1.46,1.46,1.71,4.46,1.81,7.08q.67,18.17.67,36.36c0,.88.84,1.08,1,.24,2.68-12.54.35-26.93,2.68-39.86.56-.27.91.9,1,1.78l.45,6c0,.49.51.52.57,0a46.37,46.37,0,0,1,1.76-8l.49,14.56c0,.68.68.77.79.1a72.53,72.53,0,0,0,.71-8.78l2.09,30.38c.06.85.86.95,1,.14,1.4-7.35-.4-16.14,1.42-23.18.22-.85,1.08-.71,1.16.2.73,8-.64,16.63.85,24.25.15.76.89.66,1-.12L394.62,134l.18-.7c.34-1.31,1.63-1.09,1.77.29l2.32,22.93c.11,1.09,1.19,1,1.22-.1.27-8.38-1.28-17.3,1.64-24.35l1.49,23.88c.07,1,1,1,1.12.07.43-3.54,1-7.33,1.51-8.25q.78,12.28,1.09,24.62c0,1.62,1.58,1.86,1.85.28.89-5.18.58-11.15,1.62-16.27.24-1.19,1.41-1,1.44.27q.08,3.44.32,6.84c0,.55.55.69.72.2l1.56-4.38.32,7.64c0,1.23,1.24,1.34,1.4.12.6-4.51-.07-9.81,1.51-13.85l.23,17.12c0,1.38,1.32,1.66,1.6.35.7-3.22.54-7.21,1.37-10.47.19-.76.92-.72,1.06.06q.63,3.57.94,7.23c.1,1.13,1.12,1.37,1.46.35a30,30,0,0,0,1.48-8.05L427.56,171c.16,1.05,1.11,1.23,1.44.28l.53-1.53c.41-1.15,1.52-1.22,2-.09,1.09,2.84,1,7.21,2.78,9.35.86,1,2,1.35,2.91,2.29,1.1,1.16,1.68,3.1,2.21,4.95a82.19,82.19,0,0,1,2.51,10.43c1,6.25.6,12.95,1.79,19,.21,1.07,1.18,1.22,1.54.25a31.38,31.38,0,0,0,1.89-9.74q1,10.77,1.93,21.53C455.08,295.37,460.77,363.73,457.41,431.71Z"/>
    <path class="cls-4" d="M0,0V599l500,1V0ZM461.26,410.45c-.49,16.86-1.81,36.27-10.34,45.63-3.55,3.89-7.84,5.35-11.94,7.27-11.46,5.38-22,14.86-32.49,24.26l.24-5.59c.08-1.84-1.46-2.49-1.92-.81-3.09,11.2-3,25.75-9.12,32.64-3,3.37-6.83,4-10,6.77-5.21,4.57-8.34,14.59-14,17.64-2.8,1.53-5.83,1.07-8.74,1.79-9.14,2.27-16.11,15.74-25.23,18.13l-.23-4.82c-.11-2.24-1.89-3-2.62-1.12a30.26,30.26,0,0,1-2.56,5.16c-.47-3.25-.85-6.55-1.12-9.88-.26-3.11-2.84-3.69-3.59-.79h0q-.22-18.29-.7-36.57c-.06-2.32-2.06-2.62-2.38-.36a357.77,357.77,0,0,0-3.62,50.25c0,6-.42,13.36-3.89,15.39-1.95,1.14-4.1,0-5.48-2.54a18.31,18.31,0,0,1-1.94-7.47c-.17-2.46-1.82-3.72-3.08-2.35-4.94,5.39-12.52,4.85-18.74,2.59-8-2.92-17.37-6.63-23.71,2-6.55,8.89-17,2.55-25,7.23-3.35,2-6.24,5.86-9.69,7.25-2.75,1.11-5.63.55-8.45.72-5.62.33-11.08,3.57-16.7,3.46-9.71-.2-19.17-10.36-28.59-6.51-1.8.74-4.09,1.75-5-1.62a9.35,9.35,0,0,1-.24-1.42l-1-10.08c-.13-1.37-1.33-1.34-1.44,0l-1,11.81-11.23-10c-6.19-5.52-13.32-13.92-12.35-25.39-2.08-1.71-4.24,2.41-4.67,6.17-.5,4.32-.17,9.41-2.72,12a3.23,3.23,0,0,1-4,.63c-1.68-.87-2.79-6.12-3.75-11-.48-2.49-2.59-2.61-3.18-.19-1.16,4.77-2.92,9.52-4.44,9.06a6,6,0,0,1-2.58-1.94c-6.94-7.82-8.47-23.35-9.4-37.12-1.47-21.94-2.94-40.27-4.41-60.82-.05-.75-.72-.68-.72.08a489.09,489.09,0,0,1-4.37,68.16c-.35,2.75-1.76,4.89-3.46,5-1.93.1-2.59-2.27-3.1-4.47a139.38,139.38,0,0,1-2.67-15.83A18.4,18.4,0,0,1,88.69,518c-1.44,3.29-3.46,5.79-4.75,9.27a6.87,6.87,0,0,1-.84,1.67c-2.55,3.31-4.91-3.05-5.19-7.83-.72-12.4.12-25.57-1.84-37.32-.68-4.1-4.34-3.18-4.25,1.07,0,.5,0,1,.05,1.47.55,13.33.18,27.52-4.16,38.81-2,5.23-6.3,9.85-9.25,6-2.36-3-1.91-9.11-3.18-13.59-1.08-3.82-3.35-6.26-5.06-9.4-2.15-4-3.39-9-4.58-14L33.34,443.3C29.65,428,39.25,410.71,42.27,395c2.6-13.51,2.22-28.32,5.38-41.5,1.2-5,2.9-9.69,3.78-14.87,1.36-8,.69-16.48,1.07-24.74.35-7.63,2-15.9,5.8-20,.15-2.93,2.38-5,4.15-4.08s3.06,4.29,3.29,7.53a47,47,0,0,1-.69,9.7,230.21,230.21,0,0,0-2,28.14c0,2.54,2.18,3,2.56.57q2-12.69,3.54-25.56c1.86-15.58,3.63-32.52,9.37-44.74,1.25-2.67,3.85-1.39,4,2l.77,19.67c0,.75.7.77.74,0C84.54,277,85.56,267,87.06,257.1a36.89,36.89,0,0,1,1.41-6.19c1.09-3.23,4.08-2,4.19,1.66l.77,27.09c.06,2,1.77,2.18,2,.25,1.07-8.76,2.27-17.48,3.85-26,.39-2.11,2.29-1.55,2.23.65q-.9,29.42-.51,58.89c0,2.33,2.06,2.62,2.34.33,1.92-15.91,2.2-32.39,2.33-48.67,0-7.08.25-14.84,2.32-20.77.63-1.8,2.3-1.23,2.47.83,1.08,13.77.27,27.78-.92,41.65-.11,1.35,1.07,1.76,1.3.45,2.32-13.75,2.22-28.64,2.46-43.07.3-18,1.47-37.21,8.22-51.42l1.67,5.08a20,20,0,0,1,3.42-11.18c-.45,13.46-.37,27,.24,40.42.08,1.7,1.6,1.74,1.71,0,1-15.75-.18-32.3,4.4-46q.93,19.33.83,38.77c0,2,1.72,2.49,2.09.54,2.81-14.73.48-33.14,6.81-44.7l2.55,95.61c.06,2.11,1.9,2.32,2.13.25,2.94-26.26,4.64-52.89,5.08-79.59.14-8.22.17-16.56,1.54-24.47l1.3,13.5c.19,2,1.91,2.14,2.22.17l4.38-28.07,1,26.94c0,1.05,1,1.16,1.08.14l3.26-24.36a53,53,0,0,1,1.34,15.77l4.91-30.06.74,36.44c0,1.36,1.22,1.5,1.37.17l3.87-35.08,0,29.63a39.53,39.53,0,0,1,1.64-10.57l-.37,22.62c0,1.26,1.09,1.49,1.25.25,1.56-11.67,3.17-23.53,4.66-35l-.78,45.94c0,2.42,2.09,2.84,2.39.46,2-16.14,1.88-33.15,2.59-49.72a30.84,30.84,0,0,1,.76-5.7c.8-3.38,3.84-2.42,3.82,1.21a112.34,112.34,0,0,0,1.27,17.65c.32,2.08,2.1,2.11,2.43,0l2.19-13.7c.45-2.84,2.92-2.92,3.4-.09,1.37,8,.81,17.26,1.49,25.89.14,1.78,1.7,1.74,1.82,0,.61-9.19,1.62-18.31,3-27.27.49-3.18,3.19-3.42,3.85-.33a56,56,0,0,1,.75,11.53,271,271,0,0,0,1.64,32.91c.28,2.59,2.54,2.59,2.81,0,1.47-14.24,2.43-28.63,2.85-43.06.22-7.38.37-15.14,1.48-22.23.55-3.58,3.74-2.69,3.55,1,0,.72-.08,1.44-.13,2.16-.1,1.54,1.21,2,1.53.6,1.57-7.06,1.54-15.78,3.39-22,.87-2.92,3.53-2,3.61,1.24l.29,12.4,4-17c.44-1.87,2-2,2.58-.25,1.14,3.48,1,8.44.82,12.66a161.68,161.68,0,0,0,1.31,28.89c.24,1.77,1.78,1.69,2-.09,2.09-18.8-.53-39.64,5.58-55.81l.34,11.91c0,1.19,1.07,1.32,1.22.16a192,192,0,0,1,4.24-22.43A52.09,52.09,0,0,1,261,94.91q1.47-11.05,3.49-21.87c.19-1.05.76-1.86,1.42-1.88,1.2,0,1.5,2.38,1.5,4.21V99.06c0,1.85,1.61,2.17,1.87.37,2-13.51,3.73-26.9,5-40.89.14-1.53.84-2.82,1.76-3,1.62-.37,2.22,2.77,2.39,5.2l.9,12.83c4.13-9.31,1.22-23.14,4.42-33.4a6.54,6.54,0,0,1,1.11-2.31c1.05-1.19,2.55-.6,3.51.77a17.49,17.49,0,0,1,2,5.27c.23-1.56,1.65-1.83,2.39-.79a9.22,9.22,0,0,1,1.05,4.37C295.24,68.58,295,90,296.68,111c.05.68.66.61.65-.07a298.72,298.72,0,0,1,3-44.09c.37,4.53.61,9.1.72,13.67.05,2.06,1.83,2.32,2.1.31,2.58-18.76-1.58-40.24,2-59.08q.48,17.9.45,35.81c0,1.36,1.18,1.57,1.35.25l4.75-36.08q-.64,14.07-1.28,28.13a131,131,0,0,1,7.23-36.82c.22,11.38.62,22.95.95,34.46.09,3,2.71,3.08,2.91.14.94-13.94.14-28.63,2.93-41.92,2.59,1.5,2.65,7.4,2.45,11.92a130,130,0,0,0,2.69,32.58,99.56,99.56,0,0,1,2.78-24.65l2.52,23.29,3.43-20.38c2.29,4.9,1.72,11.76,1.48,17.92A41.2,41.2,0,0,0,340.58,57c.69,2.95,3.3,2.48,3.6-.64l2.9-31c1,5.73,1.77,11.59,2.23,17.5A85.64,85.64,0,0,1,355,24l1.23,30.17a82,82,0,0,0,6.07-27.39Q365.79,39.1,368.5,52c.63,3,3.21,3,3.85,0A138.1,138.1,0,0,1,376,38.52c2.24,1.33,2.77,6.08,2.94,10l.84,19.65c.07,1.57,1.44,1.67,1.59.12.54-5.52,1.25-11,2.13-16.4a52.19,52.19,0,0,1,3.83,18.74A41.66,41.66,0,0,0,389.81,53q1.05,15,2.12,30.06c5.52-8.18,1.85-23.53,4.3-35.08a207.16,207.16,0,0,1,4.3,40.26A21.7,21.7,0,0,0,403,76.18c3.29,2.5,3.82,9.71,3.88,15.68q.12,11.31.23,22.63c0,2.6,2.26,3.11,2.71.61,1.95-11,.29-24.63,3.65-35.11a109.23,109.23,0,0,1,3.09,23.32c0,1.73,1.52,2,1.79.35q.78-4.87,1.43-9.79c.14,22.35.3,44.91,2.79,66.84.45,4,3.86,4.35,4.59.48,2.77-14.47-1.12-34.16,4.45-47.25,7.92,16.74,4.54,40.61,6.84,61.65.26,2.34,2.3,2.41,2.62.08a350.43,350.43,0,0,0,3.12-54.42c2.75,1.57,3.54,7.26,3.89,12q3.5,46.82,7,93.65c1.48,19.78,2.16,38.19,4.23,57.83C463.67,326.14,462.47,368.5,461.26,410.45Z"/>
    <path class="cls-4" d="M254.25,438l2.16,11.89L257.76,461l.13,3.65.27,3.51.68,2,2.43,2.56,2.57,2.3,2.56,1.08,1.49,4.05a15,15,0,0,0,.95-2.7c0-.54.4-3.11.4-3.11l.95-4.32,1.48-7.83-1.08-6.76-1.89-5.94v-7.29s.14-3.79.14-5.41.4-4.46.54-10a26.13,26.13,0,0,0-1.32-9.26l-.64-4L263,410.17s-1.48-2.54-1.9-3.59-5.07-3.17-5.71-3-1.06-3.38-3.17-5.92-.63-3.8,1.27-3.17,3-5.91,3-7.6-.21-2.32-.85-7.61-1.9-10.14-10.77-10.14-9.09,4.65-9.72,8.24-1.69,2.33-1.48,4.86,1.27,3.38,1.27,3.38a17.31,17.31,0,0,0,1.62,6.34l.49,3-1.27.63H233a18,18,0,0,1-2.75-1.06l-2.11-.84-.42-.85-1.69-.63h-1.69l-1.9,1.27h-.85l-1.69.21-1.48-.42c-1.48-.43-1.48-.21-1.48-.21l-.84-.22h-1.9l-4.44.64-2.53.84-.85.64-1.9,3.17-.42,3.38a21.51,21.51,0,0,0-1.06,3.38c0,.63-.21,3.59-.21,4.22v1.06l-1.9.63-2.33,3.38-1.05,3.59v2.33l.21,2.32,1.27,1.06V425l-2.54,3.38-.21,4.64-.21,1.48-1.27,4,.85,2.11a14.5,14.5,0,0,1-.64,6.12c-1.05,2.54-.42,3.38-.42,3.38v2.33c0,2.32,1.48,2.32,1.48,2.32l4.22,2.12,1.48,2.53a11.08,11.08,0,0,1,2.12,1.9,5.12,5.12,0,0,0,2.32,1.48s1.48,1.06,1.69,1.9.84.85.84.85l1.69,2.11-.21,1.48-1.9,3.17a11.61,11.61,0,0,0-.21,2.53v1.69s.42,10.35.42,11.83l1.9,3.59.43,3.17v2.54l-.43,3.59v3l-.42,4.43v4.23l-1.05,5.28,1.26,3-2.11,3.59-1.27.84-.63,5.28v2.54s.42,1.27.63,2.11A11.26,11.26,0,0,1,207,538a1.61,1.61,0,0,1-.42,1,15.5,15.5,0,0,1-1.69,2.75c-.63.63,0,4.22,0,4.22v2.33l.21,3-.42,1.47-.21,4.44v2.54c0,.63-.21,2.74-.21,2.74l.42,3.59,1.27,2.75v1.9a42,42,0,0,0,.21,4.44,5.69,5.69,0,0,1,0,2.11l.42,1.48-.21,2.11-1.06,3a11.52,11.52,0,0,0-.21,1.69,46.25,46.25,0,0,0,.43,5.28,21,21,0,0,0,.84,2.11c.21.64.63,2.12.63,2.12l3.81.21h3.8a6.7,6.7,0,0,0,2.11-.64c.64-.42,1.69-.42,3.17-1.48s1.69-1.05,1.69-1.05l1.06-.64s.63-1,2.53-5.28,1.06-1,1.69-1.69a8.84,8.84,0,0,1,2.11-1.26,22.08,22.08,0,0,1,2.33-1.69A6.75,6.75,0,0,0,233,580s1.69-2.12,1.69-3a5.39,5.39,0,0,0-.42-2.32c-.43-1.27,0-1.06,0-1.69v-1.91a19.63,19.63,0,0,0-3.38-.21h-1.27l-3,.64a9.66,9.66,0,0,1-3,.21s-.21-1.69-.21-2.75.85-1.27.85-1.9a7.61,7.61,0,0,1,.21-1.48,32.81,32.81,0,0,0,.42-3.8v-1.06l-1.48-.21s-.21-.84-.42-1.48,0-.84.84-4,0-1.27,0-1.9V550c0-2.33,1.06-2.54,1.06-3.17s.63-2.32.85-3.38,0,0,.42-2.54a7.9,7.9,0,0,0,.21-2.95v-1.27s.21-1.9.21-2.75,1.06-2.74,1.9-4.86.21-1.47.64-2.74a9.36,9.36,0,0,0,.63-3,6.79,6.79,0,0,1,.42-3c.42-.63,1.06-2.74,1.48-3.38s1.48-3.38,1.9-4,.42-1.9.85-2.75.42-1.05,1.05-2.53.43-1.06,1.06-2.54.42-1.69,1.48-4.22.63-1.27.63-1.27l5.07-4.23s4.23,4.65,4.23,5.29a11.52,11.52,0,0,0,.21,1.69l4.86,2.32,1.48,1.9,1.69,1.06,1,.21,1.9,1,1.27,1.48,2.33,2.54-.22.84-.63,1.27-.63,1.69.42,2.75v1.48l-1.06,1.9-3.8,2.74L256,527.2v5.07l-.85,4.65v6.55l-.21,1.27-2.11,1-1.06,1.27v3l-.85,3-.42,7.6a29.58,29.58,0,0,0,.21,3.59c.21,1.27.21,1.06.43,2.33a7.1,7.1,0,0,0,.42,1.69l.84.63s1.27,1.06,2.12.84,3,0,4.86-.21,1.05,0,1.05,0l4.65-.63s3.8-2.54,6.13-3.8,3.59-1.27,5.07-1.9a24.9,24.9,0,0,1,3.8-1.27,34.32,34.32,0,0,0,4.22-2.33s.43-3.16.64-3.8a4.54,4.54,0,0,0-.43-2.11s-.84-2.11-1.26-3.38l-2.33-1.06H278l-2.12.64-1.9-1.69-1.48-.85.21-2.32.85-.21s.84-2.33,1.06-3a18.66,18.66,0,0,0,1.05-2.75,15.84,15.84,0,0,0,.21-2.53s1.48-2.33,2.33-3.59.42-1.48.42-1.48.42-2.75.42-3.38a1.55,1.55,0,0,1,0-.31,14.91,14.91,0,0,1-.88,1.58l-.21,1.26s-.85,0-1.69,1.69l-.85,1.69a3.71,3.71,0,0,1-.21,1.06c-.21.63-.21.63-.85,2.32s-.21,1.48-1.05,2.54-.64,1.27-1.27,2.53a7.81,7.81,0,0,0-1.06,2.75v2.11l-.42,2.11-.42-5.7,1.06-2.75V538.4s-.85-.85,1-1.9,2.33-4.44,2.33-4.44.21-1.9.84-2.11,2.75-5.49,2.75-5.49-1.27-1.69,0-2.12,3.8-5.07,3.8-5.07l-.85,3.6-.21,1s-.42,1.06-.84,1.9-.21,1.69-.64,3c0,0,1.91-1.69,2.12-2.75s1.48-4.43,1.48-5.07a3.24,3.24,0,0,1,.63-1.47l.84-1.06v-3c0-.63.43-3.38.43-4.86s-.64-1.27-.64-1.27-1.05-1.26-2.53-2.74-.64-.85-.64-.85-1.47-2.53-2.11-3.38a6.08,6.08,0,0,1-.84-2.32l-1.69-2.32-.21-1.06-1.27-1.9s-.21-3-.21-4.44-1.06-1.05-1.06-1.05l-.84-.43c-.85-.42-1.69-1.05-3-1.69s-.42-2.11-.42-2.11a28.8,28.8,0,0,0-2.75-3.17c-.63-.42,0,0,0-.63a2.2,2.2,0,0,0-.63-1.27,37.26,37.26,0,0,0-3.81-3l.85,1.9c.84.64,2.53,2.33,2.53,2.33s.21.84.43,1.48,1,2.95,1,2.95L264,480.3l-1.48-2.11-.84-1.05-.85-1.27-1.05-1.27,1.05-.42a6.32,6.32,0,0,1-1.69-1.48s-.84-.63-1.47-1.06a.74.74,0,0,1-.22-1.05l-.42-2.12a11.14,11.14,0,0,1-.21-2.74v-8.87a30.4,30.4,0,0,0-1.27-4l-.42-.84c-.42-.85-.21-1.06-.21-1.06v-4.65a6.17,6.17,0,0,0-.18-1.07c-.19-.79-.46-1.67-.46-1.67v-1.69c0-.85-.63-1.69-.84-3.17s0-.85,0-1.48v-1.06l.84-.84,1.06-4.65-.21-.85.42-.84.43-1.27h.84Zm-49.78,21.78a11.83,11.83,0,0,1-1.69-2.53s-2.54-2.75-3.8-4.23-.64-.84-1.27-1.05-.42-1.27-.85-2.54,0,0,0-2.53V444.6a7.61,7.61,0,0,1,.21-1.48l.22-1.05,1.26-2.75-.63,5.28v2.33a11.31,11.31,0,0,0-.21,1.69,7.15,7.15,0,0,0,.84,2.11l2.33,2.11,4.43,7.82Zm1.69-44.57-.21,2.32v3.38s-3.38,3.17-4.65,2.75,0,0,0-.64V418.2a2.57,2.57,0,0,1,.21-1.06l1.48-1.48.85-2.11,2.32.63Zm17.53-18.59-1.26,1.48-1.06.84-3,1.69a22.55,22.55,0,0,1-3.59.85,11.75,11.75,0,0,1-3.8-.64,4.38,4.38,0,0,1-1.48-1.48v-1.9c0-1.05,1.27-1.69,1.27-1.69h3.8l2.75.42,4-.42.84-.21C224.54,394.53,223.69,396.65,223.69,396.65Zm18.17,98-1.27,1.69a31.85,31.85,0,0,0-4.43,3.59c-1.06,1.27-1.27,2.11-2.33,3.38s-.63.85-.63.85L233,505a13.9,13.9,0,0,1-.85,3.17,6.82,6.82,0,0,0-.42,2.53l-.63,1.91-.85,2.32v3.8l-1.9,6.13-.21,2.11-1.06.85L225.38,534v-.63a18,18,0,0,1,.64-3c.42-1.9,0,0,0-1.48v-2.32a11.65,11.65,0,0,1,1.69-3.17,3.07,3.07,0,0,0,.24-.29,2.83,2.83,0,0,0,.39-2v-2.54c0-1.48.63-1.9.63-3a21.06,21.06,0,0,1,1.27-4.86c.64-1.9,0-1.05-.15-3.65s.36-.78.57-1.84a30.77,30.77,0,0,1,1.69-3.59,8.78,8.78,0,0,1,2.75-2.75c.85-.42.85-.84.85-.84l1.69-1.27,1.26-1.69.85-3,3-.84Zm28.73-6.76,1.27,1.9,1.27.21.21,1.48s-.85.21,0,1.48S275,495.3,275,495.3l.63,1.06a6.54,6.54,0,0,1,.85,1.48c.21.63,2.32,4,2.32,4,.42,1.69,1.69,4.86,1.69,4.86l-3.17-4.44-1.69-3.8-1.27-1.69L272.92,494l-1.06-1.48L270,490l-1.48-2.32-1.06-2.54Z"/>
  </g>
  <g id="arm">
    <g>
      <rect class="cls-4" x="281.2" y="436.63" width="32" height="8" transform="translate(-133.7 129.49) rotate(-20.17)"/>
      <polygon class="cls-4" points="305.85 433.73 311.98 427.22 317.5 442.24 308.61 441.24 305.85 433.73"/>
      <polygon class="cls-5" points="312.03 427.41 368.4 358.76 400.05 448.32 317.38 442.56 312.03 427.41"/>
      <path class="cls-4" d="M252.44,442.39s16.93-1.85,23.66-4,11.14-5.65,14.29-5.46c13.32.78,14,4.73,14,4.73s-12.5-1.94-14.79,2.5.5,3,4.61,3.28,10.73,1.47,5.6,3.11c-6.74,2.15-8.12,2.38-13.15.19s-5.77-4.09-9.21-.47-14.12,6.45-14.12,6.45L238,459l-4.3-13.47Z"/>
      <rect class="cls-6" x="128.2" y="465.29" width="27" height="27" transform="matrix(1, -0.1, 0.1, 1, -45.33, 15.82)"/>
    </g>
  </g>
</svg>
